<svg xmlns="http://www.w3.org/2000/svg" xmlns:xlink="http://www.w3.org/1999/xlink" width="1080" zoomAndPan="magnify" viewBox="0 0 810 809.999993" height="1080" preserveAspectRatio="xMidYMid meet" version="1.0"><rect x="-81" width="972" fill="#ffffff" y="-80.999999" height="971.999992" fill-opacity="1"/><rect x="-81" width="972" fill="#032b18" y="-80.999999" height="971.999992" fill-opacity="1"/><path fill="#ffffff" d="M 247.597656 48.261719 C 238.972656 33.574219 234.953125 9.710938 226.695312 0 L 247.835938 0 C 249.925781 10.769531 298.027344 97.339844 304.773438 101.839844 C 326.949219 124.328125 334.039062 150.179688 348.667969 174.335938 C 348.617188 176 358.699219 189.230469 371.609375 205.371094 C 437.28125 263.765625 411.058594 233.125 402.273438 217.039062 C 400.316406 209.3125 398.148438 200.792969 392.722656 187.855469 C 391.375 184.652344 388.859375 178.515625 386.347656 172.402344 C 381.160156 159.78125 374.785156 147.71875 368.328125 135.8125 C 336.234375 89.402344 312 75.539062 304.75 61.78125 C 301.414062 49.875 269.453125 16.058594 263.15625 0.0273438 L 286.386719 0.0273438 C 288.769531 3.625 303.902344 20.214844 304.75 20.980469 C 310.648438 26.910156 321.417969 34.476562 324.273438 37.757812 C 327.820312 41.804688 330.015625 44.34375 335.335938 48.128906 C 335.125 44.238281 335.125 40.269531 335.335938 36.222656 C 335.835938 27.226562 351.210938 7.910156 351.84375 1.269531 L 351.976562 0 L 372.535156 0 L 372.507812 1.90625 C 372.375 10.105469 364.652344 29.105469 363.777344 44.503906 C 361.105469 91.28125 385.023438 115.941406 405.027344 164.703125 C 406.746094 168.882812 408.441406 173.039062 411.402344 180.078125 C 417.410156 194.417969 419.765625 203.703125 421.90625 212.117188 C 424.421875 221.988281 426.5625 230.480469 435.164062 245.746094 C 441.300781 256.671875 454.398438 270.777344 463.394531 280.460938 C 470.5625 288.1875 522.503906 358.167969 476.78125 327.132812 C 470.882812 324.964844 463.949219 321.179688 456.859375 316.679688 C 440.03125 305.992188 420.503906 290.671875 415.214844 285.777344 C 407.539062 278.6875 377.90625 245.480469 355.8125 217.910156 C 340.28125 198.492188 328.191406 180.816406 328.429688 173.671875 C 329.566406 140.707031 304.75 126.417969 304.75 125.96875 C 281.253906 113.746094 263.738281 93.265625 260.90625 90.222656 C 251.648438 80.167969 256.886719 64.109375 247.597656 48.261719 Z M 471.039062 704.085938 C 465.191406 696.574219 458.921875 688.527344 453.367188 678.421875 C 448.710938 669.980469 444.980469 659.265625 441.140625 648.3125 C 433.390625 626.113281 425.320312 602.988281 407.621094 589.335938 C 396.453125 580.710938 368.859375 547.847656 346.128906 516.257812 C 343.695312 512.871094 341.207031 509.433594 338.695312 506.019531 C 337.609375 503.480469 336.261719 501.46875 334.542969 500.355469 C 320.78125 481.675781 293.980469 457.707031 291.359375 433.707031 C 287.84375 401.347656 249.980469 373.277344 237.464844 343.800781 C 227.066406 319.328125 233.097656 305.515625 225.558594 280.117188 C 219.527344 259.875 210.210938 232.835938 207.277344 225.503906 C 195.261719 195.238281 200.503906 121.550781 170.339844 95.117188 C 122.847656 53.445312 135.835938 12.433594 124.9375 0 L 81.996094 0 C 101.519531 20.136719 112.976562 45.164062 121.816406 69.242188 C 133.351562 100.699219 155.335938 104.300781 170.046875 133.589844 C 189.335938 172.007812 205.769531 297.789062 232.410156 338.035156 C 236.167969 343.695312 242.835938 360.179688 249.316406 372.164062 C 259.109375 390.261719 269.902344 409.761719 275.75 427.675781 C 280.699219 442.886719 280.460938 456.9375 290.195312 468.078125 C 303.027344 482.734375 305.621094 481.386719 317.265625 500.277344 C 301.8125 497.5 278.527344 486.414062 266.171875 477.417969 C 243.683594 461.09375 241.699219 419.976562 232.039062 384.839844 C 218.386719 335.097656 140.679688 272.894531 137.875 227.835938 C 136.421875 204.128906 122.792969 177.351562 105.09375 160.496094 C 83.503906 139.964844 42.492188 99.535156 36.75 71.730469 C 35.746094 66.914062 25.082031 24.105469 32.835938 29.925781 C 51.25 43.734375 75.300781 44.953125 77.8125 76.96875 C 81.464844 123.136719 121.839844 154.015625 137.558594 188.914062 C 153.671875 224.710938 165.472656 261.410156 194.574219 290.910156 C 206.21875 302.683594 211.457031 320.542969 216.640625 328.03125 C 226.140625 341.765625 222.011719 365.3125 226.324219 339.304688 C 228.390625 326.839844 195.554688 278.820312 185.898438 265.140625 C 174.175781 248.578125 172.140625 216.007812 153.933594 194.3125 C 126.734375 161.925781 114.355469 153.007812 103.375 109.300781 C 97.3125 85.144531 70.433594 6.746094 36.167969 0 L 0 0 L 0 24.472656 C 6.746094 18.203125 6.007812 41.777344 8.121094 48.605469 C 21.167969 90.886719 15.1875 91.652344 64.082031 146.925781 C 85.40625 171.054688 128.589844 218.625 130.335938 248.179688 C 130.8125 256.066406 131.949219 263.5 133.695312 270.589844 C 122.34375 250.21875 111.707031 233.734375 105.410156 226.644531 C 71.96875 189.046875 66.886719 178.78125 49.054688 142.824219 C 47.757812 140.230469 12.832031 78.449219 0 82.601562 L 0 131.472656 C 4.128906 131.472656 15.742188 136.871094 23.839844 153.222656 C 42.785156 191.453125 48.179688 202.382812 83.953125 242.597656 C 95.382812 255.457031 138.878906 290.222656 156.210938 333.296875 C 166.898438 359.886719 158.117188 397.0625 153.644531 403.4375 C 143.90625 417.328125 165.445312 449.210938 195.238281 482.496094 L 194.257812 481.730469 C 189.285156 477.839844 187.035156 476.09375 184.46875 474.507812 C 181.980469 472.972656 180.394531 472.285156 177.5625 471.015625 C 174.730469 469.742188 170.472656 467.839844 163.726562 464.503906 C 140.839844 453.15625 109.75 421.589844 98.398438 399.734375 C 89.746094 383.09375 87.628906 359.066406 86.042969 354.332031 C 63.792969 283.160156 13.492188 239.871094 0 236.777344 L 0 284.324219 C 19.605469 304.113281 51.066406 335.863281 59.664062 361.632812 C 61.726562 367.773438 71.042969 387.300781 80.011719 404.578125 C 87.628906 419.207031 95.410156 432.914062 99.21875 437.066406 C 101.945312 440.03125 105.621094 444.476562 109.433594 449.105469 C 120.941406 463.023438 133.589844 464.003906 150.628906 472.46875 C 177.246094 485.671875 198.09375 495.355469 213.835938 502.445312 C 241.726562 531.234375 272.390625 558.617188 290.859375 573.804688 C 315.199219 593.835938 312.925781 596.375 334.992188 623.546875 L 345.125 635.03125 C 361.554688 653.816406 369.070312 669.742188 377.113281 686.78125 C 383.4375 700.199219 390.078125 714.300781 401.507812 731.257812 C 416.828125 754.039062 416.851562 765.074219 416.878906 778.195312 C 416.878906 782.90625 420.054688 809.945312 419.921875 810.027344 L 460.933594 810.027344 C 439.050781 740.042969 402.777344 714.140625 388.039062 682.921875 C 379.414062 664.609375 378.726562 642.757812 360.339844 621.773438 C 353.007812 613.386719 351.5 611.695312 350.203125 610.210938 C 314.804688 570.152344 321.601562 570.152344 282.125 540.757812 C 180.738281 465.300781 200.609375 423.46875 166.582031 338.855469 C 165.285156 335.625 163.9375 332.371094 162.507812 329.0625 C 189.179688 367.296875 226.90625 408.226562 254.398438 481.996094 C 262.945312 504.933594 316.285156 540.253906 337.664062 559.78125 C 347.957031 569.203125 357.851562 577.21875 363.882812 579.917969 L 364.09375 580.023438 C 363.988281 579.996094 363.910156 579.996094 363.832031 579.996094 C 363.75 579.996094 363.726562 580.023438 363.804688 580.050781 C 366.105469 581.503906 370.761719 584.414062 375.367188 586.1875 C 381.902344 593.648438 388.542969 600.238281 395.210938 605.398438 C 408.148438 615.371094 415.214844 635.613281 421.984375 655.03125 C 426.113281 666.886719 430.160156 678.449219 435.558594 688.238281 C 441.988281 699.878906 448.710938 708.503906 454.980469 716.601562 C 466.4375 731.3125 476.253906 743.960938 477.152344 769.652344 C 477.3125 774.386719 478.820312 777.21875 480.777344 780.976562 C 483.105469 785.421875 483.582031 792.5625 483.582031 810.078125 L 515.4375 810.078125 C 515.4375 787.722656 501.96875 777.90625 498.664062 771.636719 C 487.496094 750.152344 499.589844 740.8125 471.039062 704.085938 Z M 141.976562 162.667969 C 164.492188 187.40625 163.300781 178.171875 179.414062 214.234375 C 183.859375 224.210938 188.199219 246.25 193.226562 254.132812 C 198.863281 262.972656 193.226562 220.398438 189.65625 212.089844 C 169.808594 165.761719 169.386719 146.472656 142.480469 124.222656 C 119.328125 105.066406 117.582031 69.664062 102.898438 43.894531 C 94.191406 28.523438 69.347656 3.546875 69.347656 13.253906 C 90.011719 40.242188 84.21875 36.300781 96.945312 62.757812 C 109.800781 89.535156 122.527344 141.289062 141.976562 162.667969 Z M 467.519531 649.636719 C 463.921875 642.015625 460.484375 634.632812 457.308594 627.808594 C 433.417969 576.34375 414.738281 563.617188 362.085938 515.648438 C 356.316406 510.382812 314.195312 411.71875 295.460938 380.074219 C 268.6875 334.804688 253.65625 294.113281 250.375 247.121094 C 248.152344 215.214844 247.253906 199.972656 239.34375 167.5625 C 219.550781 86.546875 198.304688 30.691406 175.605469 0 L 133.695312 0 C 242.652344 126.390625 201.667969 244.660156 268.5 364.835938 C 269.691406 367.324219 329.515625 488.925781 331.234375 490.75 C 334.621094 494.324219 336.234375 496.941406 337.929688 499.640625 C 341.261719 504.988281 344.78125 510.621094 357.164062 521.894531 C 406.824219 567.109375 416.246094 587.429688 438.917969 636.273438 C 441.988281 642.914062 445.324219 650.058594 449.210938 658.261719 C 453.285156 666.886719 461.753906 677.074219 470.085938 687.074219 C 482.945312 702.527344 527.953125 748.800781 528.851562 765.683594 C 529.910156 785.3125 539.25 805.132812 539.039062 810 L 572.667969 810 C 572.667969 809.945312 573.460938 784.042969 554.992188 754.570312 C 539.066406 729.144531 478.132812 672.097656 467.519531 649.636719 Z M 521.867188 656.488281 C 506.734375 640.746094 489.824219 623.148438 477.734375 592.433594 C 472.734375 579.707031 465.21875 568.222656 458.261719 557.558594 C 452.203125 548.300781 446.621094 539.726562 444.289062 532.582031 C 430.742188 491.015625 403.464844 460.324219 382.589844 436.882812 C 370.234375 422.992188 360.363281 411.90625 358.671875 404.65625 C 345.574219 349.039062 305.753906 331.207031 290.753906 280.9375 C 274.214844 225.71875 258.207031 120.28125 246.328125 80.617188 C 236.460938 47.679688 230.902344 24.15625 219.261719 0 L 190.632812 0 C 259.847656 81.175781 248.949219 227.992188 277.285156 319.855469 C 290.222656 361.792969 329.910156 395.238281 333.191406 409.234375 C 336.050781 421.402344 346.449219 440.902344 360.707031 456.9375 C 380.339844 479.003906 407.382812 501.175781 419.632812 538.828125 C 422.753906 548.429688 434.449219 558.089844 441.273438 568.539062 C 447.675781 578.328125 454.582031 588.886719 458.84375 599.761719 C 472.390625 634.183594 490.777344 653.3125 507.261719 670.457031 C 522.714844 687.074219 547.425781 712.660156 563.75 738.507812 C 574.226562 755.097656 578.78125 780.101562 583.460938 775.605469 C 592.007812 767.402344 572.957031 733.667969 554.492188 686.464844 C 546.789062 666.753906 541.949219 677.65625 521.867188 656.488281 Z M 656.753906 425.371094 C 634.421875 407.433594 593.410156 365.101562 540.203125 362.402344 C 504.722656 360.601562 489.003906 345.390625 458.234375 339.992188 C 441.855469 337.109375 412.195312 316.019531 382.90625 290.59375 C 301.839844 220.265625 315.332031 221.378906 285.011719 153.933594 C 283.210938 149.914062 276.4375 105.515625 269.214844 123.507812 C 269.214844 153.328125 266.726562 167.640625 282.789062 193.359375 C 345.28125 293.371094 270.5625 254.105469 416.140625 377.085938 C 425.558594 385.050781 435.507812 393.4375 445.136719 401.773438 C 507.527344 466.277344 607.964844 421.085938 700.671875 544.570312 C 705.515625 554.808594 712.050781 566.582031 719.855469 578.566406 C 679.769531 561.316406 684.902344 534.648438 628.863281 496.730469 C 588.859375 469.242188 518.691406 445.507812 617.382812 513.347656 C 630.902344 522.632812 642.121094 534.089844 646.960938 546.765625 C 651.964844 559.941406 664.609375 575.101562 679.375 586.292969 C 691.359375 595.367188 718.851562 603.863281 743.21875 609.921875 C 745.308594 612.355469 747.453125 614.761719 749.621094 617.117188 C 774.226562 643.65625 809.972656 654.105469 809.972656 657.042969 L 809.972656 602.140625 C 648.390625 553.511719 771.160156 500.804688 602.117188 434.261719 C 596.851562 432.199219 591.347656 430.03125 587.828125 428.628906 C 572.402344 422.460938 555.3125 419.261719 537.769531 415.980469 C 509.539062 410.6875 480.011719 405.160156 458.394531 386.503906 C 447.386719 377.007812 438.074219 369.121094 429.234375 361.660156 C 414.632812 349.332031 398.542969 333.640625 382.167969 316.390625 C 409.816406 339.039062 437.148438 356.820312 454.769531 359.914062 C 466.4375 361.953125 474.851562 365.523438 483.398438 369.148438 C 561.792969 429.261719 573.910156 392.484375 649.265625 435.929688 C 666.410156 449.714844 699.640625 465.140625 712.105469 477.839844 C 743.484375 498.082031 781 538.617188 809.972656 573.832031 L 809.972656 526.816406 C 802.671875 519.511719 778.039062 497.65625 726.523438 463.683594 C 714.484375 451.539062 676.515625 441.433594 656.753906 425.371094 Z M 148.40625 369.070312 C 135.757812 334.910156 96.863281 315.570312 79.375 271.492188 C 67.363281 241.167969 7.726562 163.460938 0 150.761719 L 0 193.703125 C 7.859375 211.507812 41.539062 238.074219 50.773438 261.332031 C 64.980469 293.1875 168.804688 411.375 148.40625 369.070312 Z M 693.769531 798.675781 C 688.925781 793.382812 672.257812 774.121094 671.410156 770.285156 C 668.128906 755.390625 654.082031 744.59375 645.773438 729.699219 C 632.753906 706.386719 624.3125 681.808594 620.292969 683 C 615.847656 684.320312 637.542969 730.703125 641.988281 741.789062 C 647.519531 755.230469 650.03125 752.320312 654.1875 771.105469 C 665.855469 804.867188 710.703125 812.222656 693.769531 798.675781 Z M 378.515625 732.660156 C 374.703125 722.132812 358.273438 699.324219 342.503906 681.730469 C 327.582031 665.085938 310.703125 647.175781 304.773438 634.660156 C 304.5625 635.375 295.566406 622.515625 294.191406 620.636719 C 237.992188 543.667969 217.304688 517.714844 122.105469 473.34375 C 7.699219 414.550781 47.226562 417.222656 26.035156 355.550781 C 21.246094 341.660156 9.65625 324.75 0 315.886719 L 0 397.273438 C 51.25 477.867188 13.097656 436.617188 99.351562 497.84375 C 160.445312 541.234375 188.039062 509.433594 228.019531 561.394531 C 249.476562 589.257812 270.433594 635.507812 275.511719 648.921875 C 277.734375 654.820312 286.835938 670.140625 295.011719 682.046875 C 301.152344 690.988281 312.238281 703.371094 320.359375 710.941406 C 341.128906 730.28125 354.277344 730.28125 370.472656 764.199219 C 371.582031 766.527344 391.03125 809.972656 387.273438 809.972656 L 408.757812 809.972656 C 410.714844 809.972656 401.164062 781.398438 388.808594 755.496094 C 384.519531 746.578125 380.550781 738.246094 378.515625 732.660156 Z M 345.152344 779.574219 C 344.515625 778.777344 337.503906 767.90625 329.777344 755.734375 C 319.988281 740.335938 308.980469 722.84375 308.214844 721.152344 L 308.214844 721.628906 C 306.945312 717.898438 295.039062 704.429688 276.09375 681.753906 C 259.320312 661.671875 237.757812 648.019531 232.570312 643.074219 C 183.621094 596.347656 174.308594 563.433594 97.050781 524.855469 C 80.25 510.859375 60.960938 499.402344 57.652344 504.378906 C 55.484375 508.558594 65.855469 513.796875 78.289062 525.835938 C 109.195312 555.761719 132.132812 596.136719 162.90625 626.324219 C 173.964844 637.171875 180.605469 643.683594 191.640625 681.96875 C 193.753906 689.242188 199.230469 697.894531 205.554688 707.898438 C 216.035156 724.433594 207.089844 745.175781 206.480469 762.878906 C 206.457031 763.722656 206.351562 765.496094 206.242188 767.5625 C 205.398438 782.960938 215.132812 794.414062 226.722656 810.078125 L 247.863281 810.078125 C 245.296875 800 223.757812 794.097656 228.308594 768.511719 C 228.417969 766.765625 228.496094 765.230469 228.546875 763.511719 C 229.367188 740.015625 236.566406 716.523438 224.683594 697.761719 C 219.15625 689.03125 214.367188 681.464844 213.015625 676.835938 C 189.867188 622.25 160.074219 584.785156 133.535156 558.222656 C 141.15625 564.652344 148.484375 571.371094 155.230469 577.589844 C 158.40625 580.5 161.449219 583.304688 164.359375 585.921875 C 169.546875 590.578125 175.234375 597.035156 180.289062 602.777344 C 184.757812 607.855469 188.78125 612.40625 192.140625 615.398438 C 200.554688 622.859375 200.871094 636.21875 205.027344 642.386719 C 208.625 647.730469 211.90625 652.570312 216.695312 657.175781 C 221.246094 661.515625 242.199219 674.480469 258.578125 694.113281 C 276.464844 715.542969 308.292969 757.746094 308.347656 758.328125 L 308.347656 757.851562 C 310.039062 762.269531 317.132812 770.972656 329.726562 786.53125 C 334.964844 792.988281 350.308594 801.109375 352.03125 810.105469 L 372.613281 810.105469 C 369.597656 794.628906 354.066406 790.710938 345.152344 779.574219 Z M 330.835938 795.023438 C 325.996094 791.214844 312.898438 784.019531 308.292969 780.050781 C 296.414062 768.273438 272.628906 748.773438 271.648438 737.105469 C 270.933594 728.375 261.222656 715.492188 254.875 709.21875 C 252.941406 707.316406 251.011719 705.753906 249.398438 704.773438 C 228.046875 691.890625 236.195312 708.398438 244.265625 720.941406 C 244.609375 721.46875 245.773438 726.285156 246.988281 731.683594 C 248.445312 738.164062 249.664062 744.621094 249.582031 745.730469 C 254.476562 766.6875 252.941406 771.160156 263.15625 810 L 286.386719 810 C 282.550781 803.78125 273.5 785.527344 268.605469 772.507812 C 257.148438 742 285.382812 784.335938 308.292969 794.761719 C 313.242188 798.753906 315.808594 800.976562 322.449219 810 L 339.59375 810 C 334.992188 803.730469 335.546875 798.703125 330.835938 795.023438 Z M 193.121094 573.328125 C 203.863281 577.507812 206.136719 584.574219 208.703125 592.617188 C 215.292969 612.859375 236.75 633.652344 242.121094 632.410156 C 247.464844 631.167969 236.75 608.042969 229.898438 586.902344 C 225.742188 573.992188 222.09375 562.640625 201.667969 554.703125 C 196.375 552.636719 188.199219 547.425781 180.632812 542.585938 C 147.480469 521.363281 145.363281 529.355469 170.949219 545.734375 C 179.441406 551.128906 185.660156 570.417969 193.121094 573.328125 Z M 196.296875 766.554688 C 190 747.558594 175.578125 675.433594 167.242188 657.070312 C 155.65625 631.5625 108.480469 630.847656 86.996094 590.765625 C 73.714844 565.972656 78.265625 542.558594 56.09375 529.882812 C 22.464844 486.492188 1.824219 442.597656 0 437.675781 L 0 481.941406 C 2.910156 490.964844 18.707031 521.390625 41.144531 550.546875 C 62.628906 578.460938 137.160156 651.488281 144.464844 669.585938 C 149.730469 682.65625 170.128906 757.214844 175.179688 772.429688 C 178.648438 782.851562 185.949219 802.722656 190.632812 810 L 219.234375 810 C 215.1875 802.40625 203.464844 789.257812 201.109375 781.53125 C 199.550781 776.34375 197.855469 771.238281 196.296875 766.554688 Z M 146.84375 751.15625 C 136.234375 738.246094 140.28125 713.53125 133.640625 698.742188 C 125.835938 681.332031 102.898438 678.632812 89.640625 645.347656 C 84.695312 632.886719 79.191406 619.074219 66.808594 604.019531 C 54 588.4375 7.089844 533.984375 0 526.816406 L 0 573.832031 C 22.675781 592.855469 81.199219 650.613281 101.390625 686.304688 C 114.777344 709.988281 110.410156 748.90625 124.804688 766.394531 C 131.84375 774.96875 129.488281 803.066406 133.695312 810 L 175.632812 810 C 173.753906 806.984375 168.144531 798.09375 167.085938 794.257812 C 163.855469 782.617188 159.386719 766.394531 146.84375 751.15625 Z M 100.570312 722.078125 C 106.8125 693.210938 26.695312 611.746094 0 602.167969 L 0 657.070312 C 10.636719 660.722656 30.320312 672.441406 50.800781 690.882812 C 89.03125 725.253906 65.007812 719.589844 73.105469 765.707031 C 76.175781 783.144531 74.585938 795.023438 81.996094 810.027344 L 124.9375 810.027344 C 117.742188 796.480469 102.949219 776.636719 100.355469 761.738281 C 98.003906 748.40625 97.789062 734.859375 100.570312 722.078125 Z M 15.664062 798.226562 C 14.816406 797.167969 3.675781 788.808594 0 786.875 L 0 810.027344 L 36.167969 810.027344 C 30.796875 805.632812 19.871094 803.386719 15.664062 798.226562 Z M 38.363281 755.308594 C 20.769531 741.417969 13.441406 714.167969 0 695.566406 L 0 747.636719 C 4.3125 750.019531 15.796875 760.390625 19.289062 763.222656 C 23.152344 766.34375 42.09375 788.226562 44.980469 792.644531 C 46.515625 794.996094 59.1875 807.40625 63.632812 806.109375 C 64.902344 800.949219 45.351562 760.839844 38.363281 755.308594 Z M 702.605469 202.195312 C 709.113281 201.085938 817.859375 230.1875 801.746094 210.925781 C 795.660156 203.652344 749.25 182.484375 738.085938 180.816406 C 703.558594 175.632812 690.089844 189.523438 659.265625 199.230469 C 584.785156 222.726562 699.191406 202.777344 702.605469 202.195312 Z M 339.011719 17.304688 C 339.992188 13.414062 341.949219 5.953125 339.59375 0 C 328.164062 0 322.449219 0 322.449219 0 C 325.332031 3.890625 327.53125 8.492188 329.039062 13.863281 C 330.863281 20.292969 335.414062 31.589844 339.011719 17.304688 Z M 764.464844 402.378906 C 763.804688 402.0625 763.167969 401.746094 762.507812 401.429688 C 738.5625 389.363281 707.261719 389.363281 688.316406 371.054688 C 665.511719 348.988281 644.210938 328.402344 617.59375 320.597656 C 578.171875 309.035156 575.179688 307.023438 551.234375 290.859375 C 547.480469 288.316406 543.167969 285.40625 535.96875 280.644531 C 528.507812 275.699219 504.667969 263.261719 496.492188 250.191406 C 469.160156 206.640625 459.453125 218.28125 487.839844 263.554688 C 497.84375 279.480469 512.023438 295.089844 522 301.707031 C 526.578125 304.75 532.1875 308.53125 537.054688 311.8125 C 563.777344 329.859375 567.136719 332.105469 610.449219 344.808594 C 631.113281 350.867188 641.671875 384.097656 662.148438 403.890625 C 683.027344 424.078125 724.988281 411.351562 753.457031 425.109375 C 756.820312 426.75 760.46875 429.339844 764.304688 432.121094 C 771.875 437.570312 810 465.589844 810 484.136719 L 810 438.074219 C 810 427.277344 772.347656 406.21875 764.464844 402.378906 Z M 585.421875 240.480469 C 556.050781 215.53125 543.085938 197.910156 526.046875 174.679688 C 520.332031 166.875 514.140625 158.460938 506.390625 148.484375 C 444.742188 69.109375 484.613281 49.160156 460.960938 0 L 419.949219 0 C 419.949219 20.398438 435.957031 36.222656 437.386719 52.015625 C 439.898438 79.640625 447.332031 113.613281 486.386719 163.910156 C 493.53125 173.117188 499.828125 181.664062 505.648438 189.601562 C 523.691406 214.179688 537.398438 232.859375 569.070312 259.742188 C 573.25 263.289062 574.917969 264.71875 576.609375 266.171875 C 600.132812 286.253906 617.117188 300.753906 647.414062 315.96875 C 666.277344 325.4375 644.449219 314.511719 658.523438 321.578125 C 690.566406 337.691406 703.585938 344.25 715.992188 346.683594 C 787.589844 360.839844 780.683594 306.996094 810 397.273438 L 810 315.886719 C 752.398438 266.675781 711.335938 347.875 585.421875 240.480469 Z M 413.941406 121.445312 C 417.488281 158.460938 497.550781 239.976562 512.582031 227.703125 C 526.179688 216.617188 434.289062 167.324219 434.289062 116.390625 C 434.289062 105.464844 413.757812 80.644531 413.757812 57.546875 C 413.757812 46.671875 412.277344 33.496094 409.234375 23.070312 C 408.808594 21.589844 408.996094 6.71875 408.808594 0 L 387.246094 0 C 381.636719 23.546875 393.359375 43.550781 401.667969 56.4375 C 413.230469 74.296875 411.851562 99.667969 413.941406 121.445312 Z M 675.511719 618.414062 C 630.292969 551.765625 609.789062 515.542969 534.777344 487.65625 C 525.996094 484.402344 517.15625 479.585938 504.644531 472.761719 C 493.132812 466.488281 488.6875 464.082031 484.773438 461.964844 C 466.226562 451.964844 458.023438 447.519531 452.597656 442.996094 C 444.34375 436.089844 425.242188 419.472656 407.566406 405.316406 C 380.738281 383.808594 357.296875 367.90625 380.472656 400.265625 C 381.109375 401.164062 382.695312 402.988281 384.863281 405.421875 L 372.589844 407.75 C 373.59375 413.96875 379.839844 421.007812 387.484375 429.660156 C 395.925781 439.183594 406.457031 451.089844 410.503906 461.699219 C 413.175781 468.6875 419.3125 477.523438 426.40625 487.683594 C 437.625 503.742188 451.382812 523.480469 453.761719 539.171875 C 455.5625 551.105469 472.285156 578.433594 490.964844 604.285156 C 511.152344 632.226562 534.277344 659.265625 543.773438 663.738281 C 615.265625 697.417969 597.195312 738.402344 631.777344 784.097656 C 640.03125 795.472656 635.164062 810 638.8125 810 L 664.027344 810 C 663.339844 804.257812 658.417969 783.382812 641.960938 762.003906 C 623.335938 737.847656 617.859375 694.507812 612.011719 687.761719 C 589.628906 661.992188 559.066406 651.277344 550.441406 647.199219 C 543.40625 643.867188 522.898438 619.179688 504.085938 593.171875 C 486.835938 569.308594 471.542969 545.042969 470.21875 536.261719 C 467.175781 516.152344 452.042969 494.457031 439.714844 476.808594 C 433.285156 467.601562 427.703125 459.582031 425.902344 454.847656 C 424.921875 452.28125 423.734375 449.742188 422.355469 447.203125 C 427.648438 453.894531 431.273438 458.179688 436.328125 462.386719 C 443.65625 468.527344 452.597656 473.34375 472.761719 484.214844 C 480.117188 488.183594 488.714844 492.816406 492.523438 494.90625 C 539.753906 520.675781 554.039062 508.1875 595.183594 542.691406 C 595.738281 543.167969 635.480469 632.4375 670.167969 651.382812 C 717.34375 707.84375 793.832031 729.804688 810 747.636719 L 810 695.566406 C 802.882812 680.300781 695.59375 648.019531 675.511719 618.414062 Z M 690.964844 234.449219 C 685.378906 235.082031 678.527344 235.851562 668.792969 235.851562 C 658.578125 236.0625 603.675781 223.28125 592.378906 212.886719 C 587.378906 208.28125 585.578125 222.355469 585.15625 226.511719 C 585.605469 233.203125 598.332031 245.773438 606.667969 245.21875 C 615.6875 244.609375 629.871094 256.4375 668.816406 256.4375 C 679.375 256.4375 687.019531 255.589844 693.238281 254.875 C 704.855469 253.578125 710.171875 252.96875 727.421875 264.265625 C 765.363281 289.085938 752.320312 252.8125 783.039062 265.085938 C 791.265625 268.367188 810.027344 284.613281 810.027344 284.324219 L 810.027344 245.667969 C 805.421875 242.253906 708.953125 232.4375 690.964844 234.449219 Z M 661.992188 96.863281 C 661.992188 96.863281 661.964844 96.839844 661.992188 96.863281 C 655.246094 90.304688 646.089844 80.9375 645.453125 78.554688 C 642.175781 66.015625 628.125 56.9375 619.816406 44.421875 C 606.800781 24.816406 598.359375 4.128906 594.335938 5.160156 C 589.890625 6.269531 611.585938 45.269531 616.03125 54.609375 C 621.21875 65.21875 623.757812 63.738281 627.460938 76.542969 C 615.582031 67.335938 603.542969 56.222656 593.144531 45.164062 C 582.085938 33.390625 571.820312 6.773438 572.640625 0.0546875 L 539.011719 0.0546875 C 540.625 12.726562 552.558594 24.949219 565.125 36.0625 C 570.789062 50.164062 578.460938 66.964844 580.921875 73.050781 C 586.453125 86.492188 588.964844 83.582031 593.121094 102.367188 C 604.816406 136.101562 649.660156 143.457031 632.703125 129.910156 C 627.859375 124.621094 611.191406 105.359375 610.34375 101.519531 C 607.0625 86.625 593.015625 75.828125 584.707031 60.933594 C 581.980469 56.066406 579.46875 51.144531 577.164062 46.40625 C 581.714844 50.351562 585.921875 54.082031 589.230469 57.625 C 612.515625 82.390625 637.277344 108.71875 663.183594 117.265625 C 678.238281 122.238281 698.503906 129.515625 718.796875 137.769531 C 715.648438 137.691406 712.871094 137.664062 711.523438 137.820312 C 701.574219 139.066406 693.398438 128.457031 685.617188 128.746094 C 672.230469 129.277344 659.980469 140.679688 642.410156 145.230469 C 600.132812 156.15625 577.933594 133.246094 559.386719 88.238281 C 556.949219 82.3125 554.382812 76.121094 548.722656 66.835938 C 545.734375 61.914062 521.339844 21.378906 522.582031 0.0273438 L 496.574219 0.0273438 C 495.753906 12.433594 512.976562 62.8125 521.3125 76.464844 C 562.191406 115.4375 579.148438 176.558594 646.539062 170.472656 C 662.441406 166.371094 673.84375 165.921875 686.28125 165.417969 C 697.738281 164.96875 709.246094 163.25 720.570312 163.539062 C 740.730469 164.042969 735.679688 161.871094 727.476562 141.339844 C 730.652344 142.691406 733.824219 144.039062 736.976562 145.414062 C 755.574219 153.589844 772.71875 162.21875 783.964844 170.128906 C 797.511719 179.652344 801.003906 172.933594 810 193.703125 L 810 150.761719 C 785.445312 109.089844 702.550781 105.039062 661.992188 96.863281 Z M 536.128906 142.980469 C 546.871094 147.160156 549.144531 154.226562 551.710938 162.269531 C 558.300781 182.511719 579.757812 203.308594 585.128906 202.0625 C 590.472656 200.820312 579.757812 177.695312 572.90625 156.554688 C 568.75 143.644531 565.101562 132.292969 544.675781 124.355469 C 539.382812 122.292969 531.207031 117.078125 523.640625 112.238281 C 490.488281 91.015625 488.371094 99.007812 513.957031 115.386719 C 522.449219 120.808594 528.667969 140.097656 536.128906 142.980469 Z M 719.484375 75.035156 C 678.316406 71.992188 671.941406 37.941406 664.054688 0 L 632.675781 0 C 639.132812 7.410156 636.589844 13.125 641.484375 25.613281 C 647.09375 39.953125 655.957031 56.699219 659.953125 61.464844 C 683.847656 89.957031 698.371094 91.042969 724.988281 93 C 731.789062 93.503906 739.542969 94.085938 748.351562 95.328125 C 750.152344 95.59375 753.035156 96.414062 756.210938 97.339844 C 775.84375 103.082031 775.234375 100.621094 794.179688 112.476562 C 801.003906 116.734375 805.210938 131.867188 810.054688 131.445312 L 810.054688 82.601562 C 799.257812 88.847656 743.511719 76.808594 719.484375 75.035156 Z M 525.253906 573.144531 L 525.28125 572.957031 C 525.042969 572.851562 524.832031 572.746094 524.617188 572.640625 C 524.9375 572.90625 525.199219 573.089844 525.253906 573.144531 Z M 741.921875 724.617188 C 726.628906 716.890625 699.21875 688.289062 671.011719 658.867188 C 662.601562 650.113281 642.253906 638.945312 633.917969 630.480469 C 607.488281 603.625 615.503906 601.320312 574.8125 574.28125 C 542.558594 552.851562 478.554688 529.089844 543.511719 587.722656 C 549.992188 593.570312 556.554688 599.496094 564.4375 604.046875 C 574.441406 609.816406 596.507812 612.777344 619.921875 638.046875 C 651.117188 671.675781 683.976562 729.566406 694.640625 744.992188 C 697.816406 749.59375 701.863281 754.359375 706.125 759.359375 C 715.253906 770.101562 725.542969 782.191406 725.304688 790.554688 C 725.015625 801.453125 728.90625 806.558594 728.90625 810 L 753.0625 810 C 753.0625 753.378906 670.300781 713.242188 732.636719 744.726562 C 758.035156 757.558594 767.746094 761.449219 779.386719 775.179688 C 785.871094 782.855469 800.078125 800.660156 810.027344 810 L 810.027344 789.652344 C 783.992188 764.570312 790.234375 749.039062 741.921875 724.617188 Z M 766.183594 29.949219 C 742.34375 23.8125 742.980469 0.265625 742.664062 0 L 714.089844 0 C 715.570312 5.105469 721.363281 14.417969 724.40625 19.023438 C 730.808594 28.761719 737.925781 39.636719 751.527344 46.039062 C 750.257812 46.59375 749.25 47.097656 748.429688 47.519531 L 742.664062 47.414062 C 734.988281 47.414062 731.949219 46.25 726.894531 44.292969 C 705.542969 36.089844 701.441406 33.074219 684.902344 14.15625 C 668.183594 -4.921875 679.1875 37.28125 701.917969 50.113281 C 730.359375 55.457031 749.039062 78.792969 781.6875 55.21875 C 788.488281 48.023438 791.691406 43.207031 792.40625 40.136719 C 799.496094 35.269531 805.792969 29.394531 810.027344 24.449219 L 810.027344 0 C 796.851562 4.789062 774.042969 31.960938 766.183594 29.949219 Z M 766.183594 29.949219 " fill-opacity="1" fill-rule="evenodd"/></svg>